HIERARCHY
ROOT Haolin_28_06:Solving:Hips
{
	OFFSET 0.000000 0.000000 0.000000
	CHANNELS 6 Xposition Yposition Zposition Xrotation Yrotation Zrotation
	JOINT Haolin_28_06:Solving:Spine
	{
		OFFSET 0.000000 -12.181966 2.015561
		CHANNELS 6 Xposition Yposition Zposition Xrotation Yrotation Zrotation
		JOINT Haolin_28_06:Solving:Spine1
		{
			OFFSET 0.000000 -8.890296 1.567602
			CHANNELS 6 Xposition Yposition Zposition Xrotation Yrotation Zrotation
			JOINT Haolin_28_06:Solving:Spine2
			{
				OFFSET 0.000000 -8.993092 0.786796
				CHANNELS 6 Xposition Yposition Zposition Xrotation Yrotation Zrotation
				JOINT Haolin_28_06:Solving:Spine3
				{
					OFFSET 0.000000 -9.027443 0.000000
					CHANNELS 6 Xposition Yposition Zposition Xrotation Yrotation Zrotation
					JOINT Haolin_28_06:Solving:Neck
					{
						OFFSET 0.000000 -11.606712 -1.160669
						CHANNELS 6 Xposition Yposition Zposition Xrotation Yrotation Zrotation
						JOINT Haolin_28_06:Solving:Neck1
						{
							OFFSET 0.000000 -7.471592 -0.653680
							CHANNELS 6 Xposition Yposition Zposition Xrotation Yrotation Zrotation
							JOINT Haolin_28_06:Solving:Head
							{
								OFFSET 0.000000 -7.386181 -1.302382
								CHANNELS 6 Xposition Yposition Zposition Xrotation Yrotation Zrotation
								JOINT Haolin_28_06:Solving:HeadEnd
								{
									OFFSET 0.000000 -9.728081 0.000002
									CHANNELS 6 Xposition Yposition Zposition Xrotation Yrotation Zrotation
									End Site
									{
										OFFSET 0.000000 -9.728081 0.000002
									}
								}
							}
						}
					}
					JOINT Haolin_28_06:Solving:RightShoulder
					{
						OFFSET 0.000000 -8.290508 -5.270916
						CHANNELS 6 Xposition Yposition Zposition Xrotation Yrotation Zrotation
						JOINT Haolin_28_06:Solving:RightArm
						{
							OFFSET -19.261074 -0.000008 0.000000
							CHANNELS 6 Xposition Yposition Zposition Xrotation Yrotation Zrotation
							JOINT Haolin_28_06:Solving:RightForeArm
							{
								OFFSET -30.691700 -0.000011 0.000000
								CHANNELS 6 Xposition Yposition Zposition Xrotation Yrotation Zrotation
								JOINT Haolin_28_06:Solving:RightHand
								{
									OFFSET -20.216934 -0.000008 0.000000
									CHANNELS 6 Xposition Yposition Zposition Xrotation Yrotation Zrotation
									JOINT Haolin_28_06:Solving:RightHandThumb1
									{
										OFFSET -4.948814 2.881329 -3.679893
										CHANNELS 6 Xposition Yposition Zposition Xrotation Yrotation Zrotation
										End Site
										{
											OFFSET -7.039886 -0.000004 -7.104978
										}
									}
									JOINT Haolin_28_06:Solving:RightHandMiddle1
									{
										OFFSET -13.196846 -0.000004 0.084595
										CHANNELS 6 Xposition Yposition Zposition Xrotation Yrotation Zrotation
										End Site
										{
											OFFSET -10.002037 -0.000004 0.000000
										}
									}
								}
							}
						}
					}
					JOINT Haolin_28_06:Solving:LeftShoulder
					{
						OFFSET 0.000000 -8.290508 -5.270916
						CHANNELS 6 Xposition Yposition Zposition Xrotation Yrotation Zrotation
						JOINT Haolin_28_06:Solving:LeftArm
						{
							OFFSET 19.261074 -0.000008 0.000000
							CHANNELS 6 Xposition Yposition Zposition Xrotation Yrotation Zrotation
							JOINT Haolin_28_06:Solving:LeftForeArm
							{
								OFFSET 30.691700 -0.000011 0.000000
								CHANNELS 6 Xposition Yposition Zposition Xrotation Yrotation Zrotation
								JOINT Haolin_28_06:Solving:LeftHand
								{
									OFFSET 20.216934 -0.000008 0.000000
									CHANNELS 6 Xposition Yposition Zposition Xrotation Yrotation Zrotation
									JOINT Haolin_28_06:Solving:LeftHandThumb1
									{
										OFFSET 4.948814 2.881329 -3.679893
										CHANNELS 6 Xposition Yposition Zposition Xrotation Yrotation Zrotation
										End Site
										{
											OFFSET 7.039886 -0.000004 -7.104978
										}
									}
									JOINT Haolin_28_06:Solving:LeftHandMiddle1
									{
										OFFSET 13.196846 -0.000004 0.084595
										CHANNELS 6 Xposition Yposition Zposition Xrotation Yrotation Zrotation
										End Site
										{
											OFFSET 10.002037 -0.000004 0.000000
										}
									}
								}
							}
						}
					}
				}
			}
		}
	}
	JOINT Haolin_28_06:Solving:RightUpLeg
	{
		OFFSET -10.083070 0.000000 0.000000
		CHANNELS 6 Xposition Yposition Zposition Xrotation Yrotation Zrotation
		JOINT Haolin_28_06:Solving:RightLeg
		{
			OFFSET 0.000000 47.042522 -0.000008
			CHANNELS 6 Xposition Yposition Zposition Xrotation Yrotation Zrotation
			JOINT Haolin_28_06:Solving:RightFoot
			{
				OFFSET 0.000000 38.766415 -0.000006
				CHANNELS 6 Xposition Yposition Zposition Xrotation Yrotation Zrotation
				JOINT Haolin_28_06:Solving:RightForeFoot
				{
					OFFSET 0.000000 3.531212 -0.000000
					CHANNELS 6 Xposition Yposition Zposition Xrotation Yrotation Zrotation
					JOINT Haolin_28_06:Solving:RightToeBase
					{
						OFFSET 0.000000 0.000000 -13.829352
						CHANNELS 6 Xposition Yposition Zposition Xrotation Yrotation Zrotation
						JOINT Haolin_28_06:Solving:RightToeBaseEnd
						{
							OFFSET 0.000000 0.000000 -4.034167
							CHANNELS 6 Xposition Yposition Zposition Xrotation Yrotation Zrotation
							End Site
							{
								OFFSET 0.000000 -4.034164 0.000004
							}
						}
					}
				}
			}
		}
	}
	JOINT Haolin_28_06:Solving:LeftUpLeg
	{
		OFFSET 10.083070 0.000000 0.000000
		CHANNELS 6 Xposition Yposition Zposition Xrotation Yrotation Zrotation
		JOINT Haolin_28_06:Solving:LeftLeg
		{
			OFFSET 0.000000 47.042522 -0.000008
			CHANNELS 6 Xposition Yposition Zposition Xrotation Yrotation Zrotation
			JOINT Haolin_28_06:Solving:LeftFoot
			{
				OFFSET 0.000000 38.766415 -0.000006
				CHANNELS 6 Xposition Yposition Zposition Xrotation Yrotation Zrotation
				JOINT Haolin_28_06:Solving:LeftForeFoot
				{
					OFFSET 0.000000 3.531212 -0.000000
					CHANNELS 6 Xposition Yposition Zposition Xrotation Yrotation Zrotation
					JOINT Haolin_28_06:Solving:LeftToeBase
					{
						OFFSET 0.000000 0.000000 -13.829352
						CHANNELS 6 Xposition Yposition Zposition Xrotation Yrotation Zrotation
						JOINT Haolin_28_06:Solving:LeftToeBaseEnd
						{
							OFFSET 0.000000 0.000000 -4.855067
							CHANNELS 6 Xposition Yposition Zposition Xrotation Yrotation Zrotation
							End Site
							{
								OFFSET 0.000000 -4.855064 0.000004
							}
						}
					}
				}
			}
		}
	}
}
MOTION
Frames: 6
Frame Time: 0.041667
-72.494904 -177.711166 -77.012207 130.442447 -3.400130 -0.490127 -0.000007 -12.181950 2.015534 25.484971 0.049754 -1.761571 0.000001 -8.890286 1.567625 11.784119 -0.080516 -1.134516 -0.000008 -8.993105 0.786779 12.664149 -0.142759 2.419868 -0.000007 -9.027365 -0.000001 -3.463190 -0.384390 3.850601 0.000014 -11.606727 -1.160689 -17.747237 -1.791151 1.184319 0.000012 -7.471605 -0.653688 -16.402008 -5.594633 -1.102698 -0.000009 -7.386176 -1.302358 -7.812503 -0.514181 0.284665 -0.000006 -9.728096 0.000012 0.000003 -0.000003 -0.000000 0.000004 -8.290543 -5.270948 -0.000012 13.803648 20.198876 -19.261078 -0.000020 -0.000027 -90.059534 -43.722554 -95.934365 -30.691689 -0.000028 0.000007 -37.773125 -9.474803 -7.269604 -20.216917 0.000008 0.000041 3.742105 -15.315318 13.908033 -4.948842 2.881319 -3.679863 0.000000 0.000003 0.000005 -13.196892 -0.000027 0.084593 -0.000001 -0.000004 0.000000 0.000006 -8.290550 -5.270948 -0.000009 -9.445092 -17.372021 19.261080 0.000023 -0.000005 -97.258376 64.142928 94.133776 30.691698 -0.000013 -0.000008 -39.924676 3.865509 3.229016 20.216928 -0.000008 0.000003 1.921168 8.236412 -13.178174 4.948800 2.881331 -3.679862 -0.000003 0.000005 -0.000009 13.196834 0.000013 0.084619 -0.000004 0.000002 -0.000006 -10.083063 0.000021 -0.000023 -90.796847 15.080183 21.667570 0.000007 47.042503 0.000012 65.983534 -0.000004 -0.000002 0.000014 38.766403 -0.000054 -12.221785 5.029196 1.341465 0.000003 3.531212 -0.000007 0.000001 -0.000003 0.000000 0.000025 -0.000006 -13.829351 -3.200674 -0.000006 0.000000 0.000011 -0.000007 -4.034173 0.000001 0.000000 0.000000 10.083065 0.000016 -0.000013 -91.745717 -15.868100 -16.164379 -0.000001 47.042492 0.000035 69.041512 -0.000001 -0.000006 -0.000015 38.766430 0.000005 -14.067896 -10.912119 4.518334 0.000006 3.531212 0.000021 0.000000 -0.000001 0.000000 0.000011 0.000012 -13.829331 0.868159 -0.000001 0.000000 -0.000007 -0.000000 -4.855077 -0.000001 0.000000 0.000001 
-72.619606 -177.768280 -76.803238 130.581851 -3.363700 -0.538914 0.000010 -12.181953 2.015538 25.521106 0.071079 -1.786762 0.000014 -8.890285 1.567538 11.777688 -0.078235 -1.143290 0.000021 -8.993104 0.786794 12.711701 -0.167511 2.392003 -0.000004 -9.027430 0.000013 -3.469407 -0.407391 3.879620 0.000012 -11.606696 -1.160669 -17.801020 -1.801878 1.279844 -0.000009 -7.471581 -0.653672 -16.394008 -5.602139 -1.167522 0.000002 -7.386200 -1.302410 -7.801151 -0.509608 0.259279 -0.000013 -9.728096 0.000006 0.000000 0.000002 0.000001 0.000032 -8.290501 -5.270910 -0.000007 13.883698 20.187543 -19.261089 -0.000034 0.000017 -90.345084 -43.921149 -95.857060 -30.691696 -0.000028 0.000030 -37.684848 -9.411149 -7.199011 -20.216923 -0.000016 0.000020 3.759768 -15.343728 13.947049 -4.948814 2.881341 -3.679893 -0.000002 -0.000000 -0.000000 -13.196862 0.000021 0.084571 -0.000002 0.000000 -0.000001 0.000024 -8.290520 -5.270910 -0.000004 -9.456543 -17.339041 19.261082 -0.000010 0.000011 -97.880026 64.210806 94.616083 30.691700 -0.000051 -0.000002 -39.853696 3.797214 3.164206 20.216938 -0.000024 0.000013 1.909079 8.177345 -13.188794 4.948804 2.881319 -3.679886 0.000001 -0.000003 -0.000004 13.196856 -0.000022 0.084594 0.000001 -0.000002 0.000002 -10.083071 -0.000001 -0.000043 -91.284809 15.136532 21.750106 0.000003 47.042534 -0.000014 66.481441 0.000003 -0.000004 0.000043 38.766418 -0.000043 -12.432654 4.861995 1.439467 0.000028 3.531197 -0.000011 -0.000000 -0.000006 -0.000000 0.000039 0.000015 -13.829358 -3.229242 -0.000002 -0.000000 0.000028 0.000000 -4.034163 0.000001 0.000001 0.000000 10.083078 0.000011 -0.000049 -92.025591 -16.970046 -16.097047 -0.000018 47.042511 0.000008 69.417466 -0.000000 -0.000002 -0.000004 38.766418 -0.000003 -13.977658 -10.782179 4.561009 0.000008 3.531212 -0.000013 -0.000000 0.000001 -0.000001 0.000006 0.000001 -13.829346 0.549252 0.000010 -0.000001 -0.000020 -0.000000 -4.855072 -0.000000 -0.000005 -0.000001 
-72.747360 -177.830124 -76.574600 130.780282 -3.272449 -0.593341 -0.000002 -12.181956 2.015569 25.498150 0.050115 -1.771963 0.000010 -8.890317 1.567621 11.784177 -0.078183 -1.156296 0.000009 -8.993093 0.786808 12.725781 -0.186373 2.392340 0.000006 -9.027430 0.000019 -3.459049 -0.418105 3.897697 0.000001 -11.606710 -1.160702 -17.772562 -1.796409 1.333478 0.000006 -7.471603 -0.653677 -16.470793 -5.586707 -1.204764 -0.000011 -7.386195 -1.302379 -7.838385 -0.506531 0.245397 -0.000002 -9.728104 0.000000 0.000001 0.000001 0.000001 -0.000008 -8.290508 -5.270940 -0.000010 13.963299 20.170203 -19.261076 -0.000016 0.000002 -90.582905 -44.284986 -95.787939 -30.691683 -0.000040 0.000002 -37.867405 -9.450816 -7.275973 -20.216921 -0.000016 0.000005 3.819989 -15.387609 14.124259 -4.948792 2.881311 -3.679890 0.000002 0.000007 0.000001 -13.196845 -0.000009 0.084573 0.000007 0.000003 0.000001 -0.000013 -8.290512 -5.270939 -0.000007 -9.467181 -17.321997 19.261082 -0.000023 -0.000007 -98.407002 64.243045 95.023648 30.691702 -0.000061 -0.000010 -39.842276 3.734513 3.110877 20.216928 -0.000006 0.000009 1.893587 8.134716 -13.151093 4.948802 2.881305 -3.679878 -0.000003 -0.000005 0.000003 13.196843 -0.000020 0.084596 -0.000006 -0.000001 0.000006 -10.083050 0.000015 0.000010 -91.807865 15.142321 21.741348 0.000007 47.042530 -0.000011 66.989464 0.000003 -0.000003 0.000003 38.766430 -0.000011 -12.690629 4.756223 1.474258 -0.000004 3.531204 -0.000030 -0.000000 0.000002 0.000000 -0.000041 0.000010 -13.829376 -3.261586 -0.000000 0.000000 0.000015 0.000000 -4.034161 -0.000000 0.000003 0.000000 10.083082 0.000002 0.000019 -92.229697 -18.048256 -16.046563 -0.000018 47.042526 -0.000007 69.404851 -0.000000 -0.000006 -0.000008 38.766441 -0.000007 -13.754065 -10.526735 4.635240 -0.000016 3.531197 0.000026 0.000001 -0.000002 0.000001 0.000008 0.000004 -13.829328 0.195011 -0.000001 -0.000001 -0.000014 0.000000 -4.855077 0.000001 0.000003 -0.000000 
-72.854774 -177.888168 -76.345383 130.960626 -3.150775 -0.679835 0.000007 -12.181978 2.015605 25.506086 0.023187 -1.730211 -0.000012 -8.890289 1.567600 11.802600 -0.078355 -1.151069 0.000007 -8.993087 0.786781 12.719564 -0.204114 2.402629 0.000008 -9.027410 -0.000004 -3.456251 -0.424595 3.913197 -0.000008 -11.606735 -1.160669 -17.682900 -1.774718 1.379065 0.000010 -7.471598 -0.653694 -16.616438 -5.544451 -1.249434 0.000004 -7.386196 -1.302400 -7.913651 -0.499814 0.228220 0.000000 -9.728096 0.000021 0.000000 -0.000001 0.000001 -0.000011 -8.290535 -5.270906 -0.000012 14.045961 20.164498 -19.261080 -0.000000 0.000004 -90.777353 -44.402903 -95.729145 -30.691687 -0.000011 0.000012 -37.975090 -9.527566 -7.362056 -20.216915 -0.000016 -0.000013 3.861409 -15.426209 14.238247 -4.948810 2.881320 -3.679888 0.000004 0.000003 0.000007 -13.196852 -0.000020 0.084563 0.000000 0.000001 0.000002 -0.000009 -8.290539 -5.270906 -0.000010 -9.510028 -17.317827 19.261082 0.000018 -0.000001 -98.905845 64.224624 95.429743 30.691706 -0.000020 -0.000005 -39.952635 3.690639 3.086487 20.216925 0.000006 -0.000005 1.886488 8.162566 -13.060556 4.948799 2.881322 -3.679858 -0.000001 0.000000 -0.000001 13.196833 -0.000017 0.084616 -0.000006 0.000002 0.000003 -10.083073 -0.000020 0.000024 -92.312602 15.109791 21.702310 -0.000026 47.042484 0.000009 67.511939 -0.000001 -0.000003 0.000004 38.766426 -0.000047 -12.962498 4.668965 1.466346 -0.000029 3.531212 0.000002 0.000000 -0.000005 -0.000000 0.000019 0.000008 -13.829347 -3.230631 0.000006 0.000000 0.000014 -0.000000 -4.034158 -0.000000 -0.000002 -0.000000 10.083071 -0.000012 0.000025 -92.214015 -19.048557 -15.915102 0.000009 47.042511 0.000019 68.938247 -0.000001 -0.000004 -0.000003 38.766430 0.000006 -13.378534 -10.202277 4.699049 -0.000000 3.531212 0.000022 0.000000 -0.000001 0.000000 0.000026 0.000013 -13.829386 -0.284840 -0.000006 0.000001 0.000006 -0.000000 -4.855065 0.000000 0.000006 -0.000001 
-72.949608 -177.938660 -76.113823 131.111997 -3.021433 -0.768257 0.000010 -12.181969 2.015527 25.535130 0.016141 -1.681935 -0.000003 -8.890312 1.567596 11.842988 -0.078648 -1.134896 -0.000005 -8.993146 0.786780 12.747158 -0.241804 2.404597 -0.000004 -9.027438 -0.000001 -3.454140 -0.450170 3.924947 -0.000013 -11.606739 -1.160691 -17.601327 -1.746069 1.486223 0.000010 -7.471601 -0.653679 -16.827332 -5.480289 -1.329390 -0.000008 -7.386204 -1.302371 -7.997119 -0.490532 0.194853 0.000015 -9.728104 0.000015 0.000005 0.000002 -0.000000 -0.000005 -8.290516 -5.270952 -0.000010 14.135007 20.147642 -19.261086 -0.000022 0.000010 -90.985612 -44.549274 -95.649293 -30.691706 0.000007 0.000003 -38.559608 -9.522702 -7.512619 -20.216917 -0.000002 -0.000018 4.065685 -15.844161 14.592547 -4.948799 2.881329 -3.679905 0.000000 0.000003 0.000001 -13.196839 -0.000003 0.084598 -0.000003 0.000001 -0.000001 -0.000006 -8.290535 -5.270953 -0.000006 -9.540896 -17.323089 19.261076 -0.000027 0.000006 -99.466563 64.179121 95.872094 30.691706 -0.000019 -0.000003 -40.008386 3.621052 3.034457 20.216915 -0.000017 -0.000008 1.872213 8.137542 -13.003277 4.948804 2.881308 -3.679851 0.000001 -0.000002 -0.000003 13.196853 -0.000020 0.084614 0.000012 0.000001 -0.000002 -10.083056 0.000004 -0.000012 -92.798563 15.084835 21.676850 0.000027 47.042492 -0.000011 68.053771 -0.000004 0.000001 0.000054 38.766422 -0.000014 -13.155945 4.496371 1.576037 0.000028 3.531212 0.000027 -0.000001 -0.000004 0.000000 0.000017 0.000009 -13.829330 -3.283561 -0.000002 -0.000000 -0.000033 0.000000 -4.034151 0.000000 0.000003 -0.000000 10.083074 0.000001 -0.000006 -92.003618 -20.012943 -15.721036 -0.000011 47.042522 -0.000007 68.008453 -0.000003 -0.000005 0.000006 38.766411 0.000012 -12.782916 -9.332443 3.815385 0.000017 3.531219 0.000008 -0.000001 0.000009 -0.000001 0.000000 0.000010 -13.829357 -0.495372 -0.000002 -0.000000 -0.000018 -0.000007 -4.855071 0.000001 -0.000004 0.000000 
-73.056076 -178.000259 -75.882996 131.342803 -2.936536 -0.758019 -0.000007 -12.181937 2.015536 25.529256 0.007953 -1.702184 -0.000013 -8.890276 1.567622 11.853424 -0.081530 -1.137964 0.000013 -8.993119 0.786778 12.777518 -0.282808 2.395912 0.000014 -9.027418 0.000000 -3.446490 -0.470623 3.933549 0.000003 -11.606671 -1.160680 -17.578294 -1.716372 1.544307 -0.000002 -7.471573 -0.653685 -17.007724 -5.405219 -1.363236 -0.000008 -7.386183 -1.302347 -8.062527 -0.481257 0.176186 0.000004 -9.728096 -0.000004 0.000001 0.000001 0.000001 -0.000004 -8.290489 -5.270924 -0.000013 14.195709 20.110020 -19.261080 -0.000014 0.000014 -91.211022 -44.655299 -95.544894 -30.691681 -0.000027 0.000007 -37.956758 -9.584808 -7.400562 -20.216923 -0.000034 0.000003 3.938380 -15.487946 14.456913 -4.948811 2.881325 -3.679876 -0.000003 -0.000002 0.000005 -13.196849 0.000007 0.084576 -0.000003 -0.000004 0.000006 -0.000002 -8.290493 -5.270924 -0.000010 -9.552875 -17.342752 19.261072 0.000013 -0.000034 -99.955113 64.115744 96.247966 30.691710 -0.000023 0.000002 -39.988418 3.544104 2.968077 20.216932 -0.000001 -0.000022 1.859842 8.095723 -12.984272 4.948804 2.881337 -3.679882 -0.000001 0.000003 -0.000003 13.196829 -0.000005 0.084614 -0.000003 0.000001 -0.000002 -10.083067 0.000020 -0.000023 -93.338428 15.153533 21.663598 0.000002 47.042572 0.000005 68.518962 0.000002 -0.000002 -0.000010 38.766403 -0.000011 -13.341300 4.410390 1.690517 -0.000015 3.531219 -0.000022 0.000001 -0.000001 0.000000 0.000020 0.000013 -13.829363 -3.162955 -0.000004 0.000000 0.000007 0.000000 -4.034179 -0.000000 -0.000003 0.000000 10.083060 0.000010 -0.000008 -92.207076 -20.584694 -15.626725 -0.000008 47.042492 0.000012 67.378942 -0.000005 -0.000002 -0.000018 38.766411 -0.000011 -13.033224 -6.633715 -0.405317 -0.000008 3.531212 -0.000027 0.000001 -0.000001 0.000000 -0.000005 0.000020 -13.829373 3.891420 -0.000004 0.000001 0.000018 -0.000008 -4.855086 -0.000001 -0.000002 -0.000000 
